# xmcd
#
# Track frame offsets: 
#        150
#        15372
#        33735
#        54080
#        84290
#        103092
#        123955
#        140472
#        155722
#        189192
#
# Disc length: 2755 seconds
#
# Revision: 7
# Processed by: cddbd v1.5.1PL0 Copyright (c) Steve Scherf et al.
# Submitted via: ExactAudioCopy v0.95a5
#
DISCID=730ac10a
DTITLE=Various Artist - Nasty Blues 2
DYEAR=1990
DGENRE=Blues
TTITLE0=Chick Willis - Jack You Up
TTITLE1=Dicky Williams - Come Back Pussy
TTITLE2=Legendary Blues Band - Cook Me
TTITLE3=Clarence Carter - Grandpa Can't Fly His Kite
TTITLE4=Blues Boy Willie - Let Me Funk With You
TTITLE5=Drink Small - Tittie Man
TTITLE6=Chick Willis - Nuts for Sale
TTITLE7=Artie White - Don't Pet My Dog
TTITLE8=Nappy Brown - Lemon Squeezin' Daddy
TTITLE9=Clarence Carter - Kiss You All Over
EXTD=LABEL =Ichiban Records, Inc.\nID =ICH1066CD\nUPC =019011-1066-
EXTD=25\nCOPYRIGHT =1990
EXTT0=
EXTT1=
EXTT2=
EXTT3=
EXTT4=
EXTT5=
EXTT6=
EXTT7=
EXTT8=
EXTT9=
PLAYORDER=
